# xmcd
#
# Track frame offsets: 
#        150
#        10752
#        28022
#        50295
#        59855
#        70100
#        81252
#        101105
#        121740
#        134242
#        147822
#        163515
#
# Disc length: 2292 seconds
#
# Revision: 3
# Processed by: cddbd v1.5.2PL0 Copyright (c) Steve Scherf et al.
# Submitted via: ExactAudioCopy v0.99pb4
#
DISCID=a908f20c
DTITLE=Freakwater - Old Paint
DYEAR=1995
DGENRE=Country
TTITLE0=Gravity
TTITLE1=Smoking Daddy
TTITLE2=Gone To Stay
TTITLE3=Little Black Train
TTITLE4=Waitress Song
TTITLE5=My One Desire
TTITLE6=White Rose
TTITLE7=Out Of This World
TTITLE8=Kentucky House
TTITLE9=Hero/Heroine
TTITLE10=Ugly Man
TTITLE11=Burying Geraldine
EXTD=
EXTT0=
EXTT1=
EXTT2=
EXTT3=
EXTT4=
EXTT5=
EXTT6=
EXTT7=
EXTT8=
EXTT9=
EXTT10=
EXTT11=
PLAYORDER=
